<?xml version="1.0" encoding="UTF-8" standalone="no"?>
<!-- Created with Inkscape (http://www.inkscape.org/) -->

<svg
   width="181.866"
   height="181.866"
   viewBox="0 0 48.118711 48.118712"
   version="1.1"
   id="svg1"
   xml:space="preserve"
   inkscape:version="1.3 (0e150ed, 2023-07-21)"
   sodipodi:docname="favicon.svg"
   xmlns:inkscape="http://www.inkscape.org/namespaces/inkscape"
   xmlns:sodipodi="http://sodipodi.sourceforge.net/DTD/sodipodi-0.dtd"
   xmlns="http://www.w3.org/2000/svg"
   xmlns:svg="http://www.w3.org/2000/svg"><sodipodi:namedview
     id="namedview1"
     pagecolor="#505050"
     bordercolor="#eeeeee"
     borderopacity="1"
     inkscape:showpageshadow="0"
     inkscape:pageopacity="0"
     inkscape:pagecheckerboard="true"
     inkscape:deskcolor="#505050"
     inkscape:document-units="px"
     inkscape:clip-to-page="false"
     inkscape:zoom="6.9346032"
     inkscape:cx="88.829884"
     inkscape:cy="-7.4986266"
     inkscape:window-width="1952"
     inkscape:window-height="1201"
     inkscape:window-x="2240"
     inkscape:window-y="25"
     inkscape:window-maximized="0"
     inkscape:current-layer="layer1" /><defs
     id="defs1" /><g
     inkscape:label="Layer 1"
     inkscape:groupmode="layer"
     id="layer1"
     transform="translate(29.304174,-82.171307)"><path
       style="fill:#000000;fill-opacity:1"
       d="m -18.35978,122.88169 v -12.7 h 2.24896 2.24896 v 12.7 7.40833 h -2.24896 -2.24896 z m 9.5249997,-0.11958 v -12.81959 l 1.23478,-0.84954 c 1.7522804,-1.20561 4.0374204,-3.616 5.0827304,-5.36133 3.572,-5.964088 3.27238005,-12.575336 -0.86542,-19.096355 l -1.50204,-2.463988 14.04162,-10e-7 v 2.459384 2.197824 l -3.04271,-0.134274 c -1.70173,-0.0751 -3.0412,-0.03056 -3.03929,0.101068 0.002,0.129439 0.24632,1.009249 0.54321,1.955134 1.1781,3.753454 1.11122,9.086315 -0.16192,12.910378 -1.09728,3.29584 -2.61943995,5.70955 -5.34564,8.47669 l -2.4474,2.48415 v 9.23448 3.94282 l 9.19427,-0.0696 9.1942699,-0.0696 0.07,-2.71198 0.07,-8.00364 H 11.145101 8.0985101 v -2.24896 -2.24896 h 5.2916599 5.29167 v 12.56771 7.27604 H 4.9235101 -8.8348303 Z M -19.51665,107.78719 c -1.71571,-0.42957 -4.49581,-2.04643 -5.78921,-3.36691 -4.99454,-5.099138 -5.17046,-12.915824 -0.40408,-17.95556 2.69476,-2.849315 5.52475,-4.064283 9.46683,-4.064283 3.96183,0 6.7703097,1.2131 9.5065701,4.106299 5.87611005,6.213115 3.93527,16.423894 -3.8556101,20.284424 -2.13981,1.06032 -2.33379,1.10544 -5.06249,1.17756 -1.56059,0.0413 -3.29849,-0.0404 -3.86201,-0.18153 z m 5.56347,-4.87894 c 2.73083,-0.81097 4.7835997,-3.018638 5.5353697,-5.953048 0.96825,-3.779458 -1.25183,-7.820355 -5.0843297,-9.254275 -2.97879,-1.11451 -6.09695,-0.39152 -8.44704,1.958566 -4.14494,4.144944 -2.45203,11.217967 3.1482,13.153267 1.68406,0.58197 3.11476,0.61015 4.8478,0.0955 z"
       id="path1"
       sodipodi:nodetypes="cccccccccccsssccccscssscccccccccccccccccccsssssccsssssss" /></g></svg>
