<?xml version="1.0" encoding="UTF-8" standalone="no"?>
<!-- Created with Inkscape (http://www.inkscape.org/) -->

<svg
   width="352.7659"
   height="201.86606"
   viewBox="0 0 93.335975 53.410395"
   version="1.1"
   id="svg1"
   xml:space="preserve"
   inkscape:version="1.3 (0e150ed, 2023-07-21)"
   sodipodi:docname="logo-light.svg"
   xmlns:inkscape="http://www.inkscape.org/namespaces/inkscape"
   xmlns:sodipodi="http://sodipodi.sourceforge.net/DTD/sodipodi-0.dtd"
   xmlns="http://www.w3.org/2000/svg"
   xmlns:svg="http://www.w3.org/2000/svg"><sodipodi:namedview
     id="namedview1"
     pagecolor="#505050"
     bordercolor="#eeeeee"
     borderopacity="1"
     inkscape:showpageshadow="0"
     inkscape:pageopacity="0"
     inkscape:pagecheckerboard="true"
     inkscape:deskcolor="#505050"
     inkscape:document-units="px"
     inkscape:clip-to-page="false"
     inkscape:zoom="3.4673016"
     inkscape:cx="167.85387"
     inkscape:cy="22.351675"
     inkscape:window-width="2560"
     inkscape:window-height="1326"
     inkscape:window-x="1920"
     inkscape:window-y="25"
     inkscape:window-maximized="1"
     inkscape:current-layer="layer1" /><defs
     id="defs1" /><g
     inkscape:label="Layer 1"
     inkscape:groupmode="layer"
     id="layer1"
     transform="translate(32.082705,-82.171307)"><path
       style="fill:#e6e6e6;fill-opacity:1"
       d="m -21.271009,122.8817 v -12.7 h 2.24896 2.24896 v 12.7 12.7 h -2.24896 -2.24896 z m 9.525,-0.11958 v -12.81959 l 1.23478,-0.84954 c 1.7522804,-1.20561 4.0374204,-3.616 5.0827304,-5.36133 3.572,-5.964092 3.27238,-12.57534 -0.86542,-19.096359 l -1.50204,-2.463994 c 4.6805046,0.03485 9.3610842,0 14.04162,0 v 2.45939 2.197824 l -3.04271,-0.134274 c -1.70173,-0.0751 -3.04119997,-0.03056 -3.03928997,0.101068 0.002,0.129439 0.24632,1.009249 0.54321,1.955134 1.17809997,3.753454 1.11121997,9.086315 -0.16192,12.910381 -1.09728,3.29584 -2.61944003,5.70955 -5.34564003,8.47669 l -2.4474,2.48415 v 9.23448 9.23449 l 9.19427,-0.0696 9.1942696,-0.0696 0.07,-8.00365 0.07,-8.00364 h -3.0465796 -3.04659 v -2.24896 -2.24896 h 5.2916596 5.29167 v 12.56771 12.56771 H 2.0122814 -11.746059 Z m 32.54375,0.11958 v -12.7 h 2.24896 2.24896 v 12.7 12.7 h -2.24896 -2.24896 z m 10.05417,-0.25684 v -12.95683 l 1.43159,-0.67725 c 1.8769,-0.88792 3.49077,-2.48514 4.30245,-4.25808 l 0.65475,-1.43017 h 8.72641 8.726417 l 0.63412,-1.43387 c 1.89316,-4.280772 1.96326,-8.888618 0.20259,-13.316654 l -0.65752,-1.653646 h -8.041647 -8.04166 v -2.252343 -2.252343 l 9.32656,0.06953 9.326557,0.06953 1.13022,1.984375 c 1.8239,3.202292 2.49728,5.641036 2.64317,9.572508 0.095,2.5599 0.017,3.84509 -0.32916,5.42396 -0.48746,2.223433 -2.11013,5.982133 -3.19863,7.409243 l -0.6694,0.87763 h -8.38755 -8.387547 l -0.92555,1.24972 c -0.50905,0.68735 -1.6078,1.78868 -2.44167,2.4474 l -1.51613,1.19767 -0.005,11.44323 -0.005,11.44323 h -2.24896 -2.24896 z m 21.960417,0.25684 v -12.7 h 2.24895 2.24896 v 12.7 12.7 h -2.24896 -2.24895 z m -75.240207,-15.0945 c -1.71571,-0.42957 -4.49581,-2.04643 -5.78921,-3.36691 -4.99454,-5.099142 -5.17046,-12.915828 -0.40408,-17.955564 2.69476,-2.849315 5.52475,-4.064283 9.46683,-4.064283 3.96183,0 6.77031,1.2131 9.5065704,4.106299 5.87611,6.213115 3.93527,16.423898 -3.8556104,20.284428 -2.13981,1.06032 -2.33379,1.10544 -5.06249,1.17756 -1.56059,0.0413 -3.29849,-0.0404 -3.86201,-0.18153 z m 5.56347,-4.87894 c 2.73083,-0.81097 4.7836,-3.018642 5.53537,-5.953052 0.96825,-3.779458 -1.25183,-7.820355 -5.08433,-9.254275 -2.97879,-1.11451 -6.09695,-0.39152 -8.44704,1.958566 -4.14494,4.144944 -2.45203,11.217971 3.1482,13.153271 1.68406,0.58197 3.11476,0.61015 4.8478,0.0955 z m 36.67382,4.74889 c -2.24549,-0.60474 -4.05112,-1.67071 -5.75351,-3.39664 -2.53564,-2.5707 -3.84149,-5.609052 -3.84149,-8.938052 0,-6.518203 4.50331,-11.849372 10.92764,-12.936509 6.90219,-1.168002 13.64327,3.750136 14.76819,10.774543 1.03108,6.438436 -3.14811,12.861898 -9.43321,14.498958 -1.90985,0.49745 -4.81569,0.49645 -6.66762,-0.002 z m 6.74834,-4.88055 c 1.81805,-0.7851 3.81948,-2.951882 4.46034,-4.828832 0.75025,-2.19733 0.62046,-4.323953 -0.38903,-6.374523 -2.50038,-5.078992 -8.84798,-6.378967 -12.98512,-2.659324 -4.83176,4.34417 -3.27938,11.988919 2.88922,14.228079 1.59437,0.57875 4.2049,0.42041 6.02459,-0.3654 z"
       id="path1"
       sodipodi:nodetypes="cccccccccccsssccccscssscccccccccccccccccccccccccccccsscccsscccccccsssscccssccccccccccccccccsssssccssssssscsssssccssssss" /></g></svg>
