<?xml version="1.0" encoding="UTF-8" standalone="no"?>
<!-- Created with Inkscape (http://www.inkscape.org/) -->

<svg
   width="857"
   height="672"
   viewBox="0 0 226.74791 177.8"
   version="1.1"
   id="svg1"
   xml:space="preserve"
   inkscape:version="1.3 (0e150ed, 2023-07-21)"
   sodipodi:docname="netwaretcs-715.svg"
   xmlns:inkscape="http://www.inkscape.org/namespaces/inkscape"
   xmlns:sodipodi="http://sodipodi.sourceforge.net/DTD/sodipodi-0.dtd"
   xmlns="http://www.w3.org/2000/svg"
   xmlns:svg="http://www.w3.org/2000/svg"><sodipodi:namedview
     id="namedview1"
     pagecolor="#505050"
     bordercolor="#eeeeee"
     borderopacity="1"
     inkscape:showpageshadow="0"
     inkscape:pageopacity="0"
     inkscape:pagecheckerboard="true"
     inkscape:deskcolor="#505050"
     inkscape:document-units="px"
     inkscape:clip-to-page="false"
     inkscape:zoom="0.8668254"
     inkscape:cx="306.86687"
     inkscape:cy="248.60831"
     inkscape:window-width="2560"
     inkscape:window-height="1326"
     inkscape:window-x="1920"
     inkscape:window-y="25"
     inkscape:window-maximized="1"
     inkscape:current-layer="layer1" /><defs
     id="defs1" /><g
     inkscape:label="Layer 1"
     inkscape:groupmode="layer"
     id="layer1"
     transform="translate(103.30128,-21.899424)"><path
       style="fill:#000000"
       d="M -103.30128,110.79943 V 21.899426 h 56.753122 56.753123 v 88.900004 88.9 h -56.753123 -56.753122 z m 65.881247,54.63646 v -10.18646 h -2.248959 -2.248958 l -0.04119,4.82864 c -0.02266,2.65576 -0.0088,6.1681 0.03088,7.80521 l 0.07207,2.97656 h -18.774225 -18.774216 l -0.174367,-5.59891 c -0.0959,-3.0794 -0.174367,-6.59174 -0.174367,-7.80521 v -2.20629 h -2.248958 -2.248959 v 10.18646 10.18645 h 23.415624 23.415625 z m 9.789583,-0.91334 v -11.09978 l 1.162279,-0.79967 c 0.639254,-0.43982 1.811518,-1.5171 2.605031,-2.39397 l 1.442751,-1.59429 h 6.25851 6.2585115 v 13.49375 13.49375 h 2.248959 2.248958 V 161.95332 148.2843 l 0.783881,-1.22158 c 1.238519,-1.93006 2.291567,-4.46908 2.792541,-6.73312 0.561493,-2.53755 0.424479,-7.41956 -0.271851,-9.68642 -0.538402,-1.75274 -2.045819,-4.83476 -2.94403,-6.01927 l -0.652054,-0.8599 H -16.002249 -26.307534 v 2.24896 2.24896 h 9.091992 9.0919935 l 0.716499,1.59657 c 0.394074,0.87811 0.905382,2.51522 1.136238,3.63802 0.537667,2.615 0.198696,5.76581 -0.906184,8.42319 l -0.756859,1.82034 -8.8009025,0.0697 -8.800901,0.0697 -0.509842,1.18942 c -0.753953,1.7589 -2.648063,3.64165 -4.499518,4.47253 l -1.583349,0.71057 v 12.68516 12.68516 h 2.248958 2.248959 z m -19.446875,-5.96583 v -7.67292 l -5.22552,-0.0717 -5.225521,-0.0717 v 2.38685 2.38684 h 2.910416 2.910417 v 3.04271 3.04271 h -9.128125 -9.128124 v -3.94676 -3.94676 l 1.707732,-1.63985 c 2.014172,-1.93411 4.098527,-4.85902 5.210895,-7.3123 2.253195,-4.96931 2.429045,-9.61827 0.601298,-15.89652 -0.172678,-0.59314 -0.162108,-0.59531 2.900257,-0.59531 h 3.073567 v -2.24896 -2.24896 h -7.137815 -7.137815 l 1.459378,2.23888 c 4.162759,6.38624 4.605284,11.38071 1.555768,17.55888 -0.960095,1.9451 -1.647564,2.90119 -3.246972,4.51567 -1.115951,1.12647 -2.428467,2.33975 -2.916703,2.69617 l -0.887701,0.64804 0.195708,7.4725 0.195708,7.4725 13.656576,-0.0685 13.656576,-0.0685 z m -31.494666,-9.26913 c 6.240369,-1.6254 10.417966,-7.98171 9.445061,-14.37085 -1.563546,-10.26792 -13.782938,-14.71043 -21.464789,-7.80379 -1.737984,1.5626 -2.970094,3.44041 -3.724845,5.67691 -0.75744,2.24445 -0.644941,6.47526 0.23137,8.70123 1.466598,3.72541 5.224256,7.02247 9.035304,7.92779 1.542593,0.36645 4.822149,0.29998 6.477899,-0.13129 z m -5.220379,-4.36586 c -2.488544,-0.62213 -4.588297,-2.36741 -5.718998,-4.75355 -0.555474,-1.17223 -0.688307,-1.84109 -0.683084,-3.43959 0.0086,-2.62534 0.75284,-4.31839 2.667696,-6.06846 4.446871,-4.06419 11.454066,-2.26827 13.472643,3.45299 0.893925,2.53365 0.207542,5.9904 -1.611433,8.11546 -1.779434,2.07887 -5.565387,3.33349 -8.126824,2.69315 z m 47.247235,4.37678 c 3.16718,-0.82495 6.089114,-2.93675 7.841223,-5.66717 3.238762,-5.04718 2.456384,-11.91496 -1.839161,-16.14433 -2.515184,-2.47644 -5.532989,-3.70402 -9.136476,-3.71653 -8.764878,-0.0304 -14.980097,8.40454 -12.374895,16.79457 2.014687,6.48829 9.008649,10.42666 15.509309,8.73346 z m -6.281757,-4.90242 c -2.686012,-1.04872 -4.873844,-4.05313 -5.111994,-7.01999 -0.392515,-4.8899 3.366234,-8.97382 8.249402,-8.96306 3.253565,0.007 6.119755,1.80848 7.565765,4.75484 0.52755,1.07493 0.644287,1.71779 0.646584,3.56071 0.0024,1.93007 -0.09777,2.44058 -0.706454,3.60035 -0.899548,1.71395 -3.025174,3.63586 -4.623653,4.18051 -1.679884,0.5724 -4.394178,0.52128 -6.01965,-0.11336 z m -36.66189,-60.584159 v -12.7 h -2.248958 -2.248958 v 12.7 12.7 h 2.248958 2.248958 z m 32.543749,0 v -12.7 h -5.159375 -5.159375 v 2.38125 2.38125 h 2.910417 2.910416 v 8.06979 8.06979 h -9.128124 -9.128125 v -9.375 -9.37499 l 1.237014,-1.0099 c 2.843559,-2.32149 5.866142,-7.1119 6.897572,-10.93178 0.714714,-2.64693 0.644123,-8.471466 -0.135517,-11.181596 -0.324905,-1.12941 -0.590736,-2.111676 -0.590736,-2.182812 0,-0.07114 1.369219,-0.12934 3.042708,-0.12934 h 3.042708 v -2.38125 -2.38125 h -7.174179 -7.174179 l 0.484784,0.727604 c 3.407961,5.11495 4.416494,7.875453 4.422373,12.104684 0.0035,2.50554 -0.100203,3.21784 -0.745329,5.12028 -1.230478,3.62861 -3.355204,6.51092 -6.402585,8.68549 l -1.667134,1.18964 v 12.80907 12.80907 h 13.758333 13.758333 z m 9.789583,0 v -12.7 h -2.248958 -2.248959 v 12.7 12.7 h 2.248959 2.248958 z m 9.796405,1.25677 0.0068,-11.44323 1.366591,-0.92604 c 0.751625,-0.50933 1.897491,-1.60903 2.546369,-2.44379 l 1.179778,-1.51774 8.486071,-0.0698 8.4860705,-0.0698 1.099532,-1.79008 c 0.604743,-0.98454 1.498091,-2.94908 1.985217,-4.36562 0.852294,-2.47845 0.885472,-2.72517 0.880064,-6.5443 -0.0054,-3.784048 -0.04581,-4.085722 -0.869305,-6.482288 -0.475028,-1.382448 -1.401834,-3.378277 -2.059569,-4.435175 l -1.195883,-1.921634 -9.1733535,0.06955 -9.173352,0.06955 -0.07645,2.315104 -0.07645,2.315104 h 8.050322 8.0503225 l 0.682064,1.653646 c 1.043121,2.529017 1.306379,3.821981 1.306379,6.416142 0,2.59417 -0.263258,3.88713 -1.306379,6.41615 l -0.682064,1.65365 h -8.7049045 -8.704903 l -0.719147,1.52135 c -0.918215,1.94248 -2.612817,3.63785 -4.447,4.44902 l -1.441588,0.63754 v 12.96792 12.96792 h 2.248959 2.248958 z m 22.2181775,-1.25677 v -12.7 h -2.38125 -2.38125 v 12.7 12.7 h 2.38125 2.38125 z M -78.033573,68.586061 c 5.883148,-1.61458 10.078901,-8.13085 9.138401,-14.192521 -1.038513,-6.693376 -6.183467,-11.167114 -12.842568,-11.167114 -6.865388,0 -12.000281,4.667764 -12.954614,11.776115 -0.438344,3.265 1.179421,7.68473 3.75465,10.25771 3.398023,3.39505 8.170209,4.625 12.904131,3.32581 z m -6.39433,-4.5623 c -5.680058,-2.03011 -7.480939,-9.09747 -3.4363,-13.485386 4.199625,-4.556055 11.728858,-3.074822 13.923503,2.739185 1.47535,3.908461 -0.350041,8.474131 -4.126784,10.321921 -1.915732,0.93728 -4.451776,1.10645 -6.360419,0.42428 z m 49.672298,4.19303 c 3.474112,-1.37072 6.623971,-4.76539 7.695702,-8.29383 0.442595,-1.45715 0.527609,-2.32115 0.445813,-4.53083 -0.0954,-2.577317 -0.16288,-2.854651 -1.203962,-4.948499 -2.785913,-5.603093 -8.90416,-8.495153 -14.750362,-6.972411 -8.743038,2.277272 -12.646265,12.34194 -7.685059,19.81632 1.648147,2.48303 3.976557,4.22729 6.95908,5.21318 2.097302,0.69327 6.426925,0.5493 8.538788,-0.28393 z m -6.997248,-4.13665 c -3.623982,-1.15734 -5.709257,-3.8048 -5.923363,-7.5203 -0.152537,-2.647058 0.51943,-4.471343 2.321241,-6.3018 4.098148,-4.163301 11.106772,-2.839542 13.581675,2.565249 0.840201,1.834864 0.787575,4.721341 -0.121509,6.664581 -1.746236,3.73273 -6.140159,5.77959 -9.858044,4.59227 z M 82.171633,162.94174 v -12.6806 l 1.52135,-0.69429 c 1.88275,-0.8592 3.50687,-2.41474 4.30876,-4.12681 l 0.61034,-1.30311 h 8.68157 8.681557 l 0.66812,-1.31847 c 1.69453,-3.344 2.0038,-7.66955 0.8049,-11.2575 -0.38749,-1.15962 -0.87817,-2.3763 -1.09041,-2.70372 l -0.38589,-0.59531 h -8.989737 -8.98973 v -2.24896 -2.24896 h 10.29117 10.291167 l 0.81146,1.26455 c 2.24384,3.49673 3.2691,6.994 3.27485,11.17087 0.006,4.11559 -1.09584,7.86755 -3.2133,10.94518 l -0.81785,1.1887 v 13.51223 13.51222 H 106.381 104.13204 V 161.9963 148.63484 h -6.293517 -6.29352 l -0.97559,1.30676 c -0.53657,0.71872 -1.62903,1.76052 -2.42769,2.31511 l -1.4521,1.00834 -0.01,11.00866 -0.01,11.00867 -1.62631,0.16998 c -0.89447,0.0935 -1.9065,0.16998 -2.24896,0.16998 h -0.62264 z m -52.19163,7.62049 c -0.0815,-2.63754 -0.0813,-7.10238 4.6e-4,-9.92187 l 0.1486,-5.12635 h 2.20878 2.20879 v 7.67292 7.67291 h 18.95009 18.9501 l -0.0791,-2.97656 c -0.0435,-1.63711 -0.0581,-5.08992 -0.0324,-7.67292 l 0.0467,-4.69635 h 2.24896 2.24896 v 9.92188 9.92187 h -23.37589 -23.37591 z m 9.60798,-11.93937 0.0143,-7.47447 1.51268,-1.07755 c 3.84543,-2.73926 6.77223,-7.82008 7.30475,-12.68079 0.36555,-3.33663 -0.95209,-7.65384 -3.48777,-11.42764 -0.56799,-0.84532 -1.12,-1.68577 -1.22669,-1.86767 -0.15317,-0.26115 1.28437,-0.33073 6.83309,-0.33073 h 7.02708 v 2.24896 2.24896 h -3.07102 c -2.8221,0 -3.05533,0.0375 -2.87753,0.46302 1.09454,2.61928 1.62244,6.98489 1.20584,9.97192 -0.6669,4.78158 -2.8016,8.9714 -6.55997,12.87541 l -2.19107,2.27597 v 3.87559 3.87559 h 9.26041 9.26042 v -3.04271 -3.04271 h -2.91042 -2.91041 v -2.24896 -2.24896 h 5.15937 5.15938 v 7.54063 7.54062 h -13.75834 -13.75833 z m -10.50887,-9.30609 c -6.35407,-1.541 -10.61522,-7.95951 -9.63057,-14.50641 1.20082,-7.98423 9.63689,-12.99038 17.18472,-10.1978 7.42833,2.74837 10.63632,11.1074 7.00949,18.2646 -0.86291,1.70288 -3.48807,4.33246 -5.27947,5.28837 -2.71838,1.45054 -6.24627,1.888 -9.28417,1.15124 z m 5.03692,-4.7853 c 2.94693,-0.76758 4.98435,-2.78595 5.86291,-5.80809 1.0782,-3.70886 -1.12338,-8.0157 -4.80082,-9.39161 -4.08038,-1.52666 -8.35011,0.1818 -10.19375,4.07885 -1.39172,2.9418 -0.90799,6.17814 1.28859,8.62128 1.26809,1.41041 2.58468,2.22217 4.23466,2.6109 1.46063,0.34412 1.91347,0.33015 3.60841,-0.11133 z m 37.88317,4.88048 c -0.71989,-0.12044 -2.18615,-0.65255 -3.25835,-1.18246 -7.86831,-3.88872 -9.58761,-14.42278 -3.36695,-20.62902 1.87068,-1.86635 3.63045,-2.87655 5.97273,-3.42866 4.65612,-1.09751 9.05375,0.13382 12.32211,3.45018 8.8952,9.02583 0.93045,23.89802 -11.66954,21.78996 z m 5.4682,-4.89922 c 1.69015,-0.55905 3.71489,-2.43684 4.61809,-4.28292 0.60475,-1.23605 0.73428,-1.85225 0.73432,-3.49319 6e-5,-2.573 -0.72978,-4.27047 -2.59428,-6.03384 -1.69659,-1.60457 -3.44298,-2.30856 -5.72682,-2.30856 -2.28384,0 -4.03023,0.70399 -5.72682,2.30856 -1.85698,1.75625 -2.57832,3.44869 -2.56828,6.02581 0.009,2.32731 0.59436,3.87987 2.08445,5.52922 2.39865,2.65503 5.59551,3.44034 9.17934,2.25492 z M 30.313293,83.811931 v -12.7 h 2.24896 2.24896 v 12.7 12.7 h -2.24896 -2.24896 z m 9.525,-0.11958 v -12.81959 l 1.23478,-0.84954 c 1.75228,-1.20561 4.03742,-3.616 5.08273,-5.36133 3.572,-5.96409 3.27238,-12.575338 -0.86542,-19.096357 l -1.50204,-2.367149 5.89633,-0.07874 c 3.24298,-0.04331 6.40235,-0.0062 7.02081,0.08236 l 1.12448,0.161101 v 2.197824 2.197824 l -3.04271,-0.134274 c -1.70173,-0.0751 -3.0412,-0.03056 -3.03929,0.101068 0.002,0.129439 0.24632,1.009249 0.54321,1.955134 1.1781,3.753454 1.11122,9.086315 -0.16192,12.910385 -1.09728,3.29584 -2.61944,5.70955 -5.34564,8.47669 l -2.4474,2.48415 v 9.23448 9.23449 l 9.19427,-0.0696 9.19427,-0.0696 0.07,-8.00365 0.07,-8.00364 h -3.04658 -3.04659 v -2.24896 -2.24896 h 5.29166 5.29167 v 12.56771 12.56771 h -13.75833 -13.75834 z m 32.54375,0.11958 v -12.7 h 2.24896 2.24896 v 12.7 12.7 h -2.24896 -2.24896 z m 10.05417,-0.25684 v -12.95683 l 1.43159,-0.67725 c 1.8769,-0.88792 3.49077,-2.48514 4.30245,-4.25808 l 0.65475,-1.43017 h 8.72641 8.726417 l 0.63412,-1.43387 c 1.89316,-4.28077 1.96326,-8.888616 0.20259,-13.316652 l -0.65752,-1.653646 h -8.041647 -8.04166 V 45.57625 43.323907 l 9.32656,0.06953 9.326557,0.06953 1.13022,1.984375 c 1.8239,3.202292 2.49728,5.641036 2.64317,9.572508 0.095,2.5599 0.017,3.84509 -0.32916,5.42396 -0.48746,2.22343 -2.11013,5.98213 -3.19863,7.40924 l -0.6694,0.87763 h -8.38755 -8.387547 l -0.92555,1.24972 c -0.50905,0.68735 -1.6078,1.78868 -2.44167,2.4474 l -1.51613,1.19767 -0.005,11.44323 -0.005,11.44323 h -2.24896 -2.24896 z m 21.960417,0.25684 v -12.7 h 2.24895 2.24896 v 12.7 12.7 h -2.24896 -2.24895 z m -75.240207,-15.0945 c -1.71571,-0.42957 -4.49581,-2.04643 -5.78921,-3.36691 -4.99454,-5.09914 -5.17046,-12.915826 -0.40408,-17.955562 2.69476,-2.849315 5.52475,-4.064283 9.46683,-4.064283 3.96183,0 6.77031,1.2131 9.50657,4.106299 5.87611,6.213115 3.93527,16.423896 -3.85561,20.284426 -2.13981,1.06032 -2.33379,1.10544 -5.06249,1.17756 -1.56059,0.0413 -3.29849,-0.0404 -3.86201,-0.18153 z m 5.56347,-4.87894 c 2.73083,-0.81097 4.7836,-3.01864 5.53537,-5.95305 0.96825,-3.779458 -1.25183,-7.820355 -5.08433,-9.254275 -2.97879,-1.11451 -6.09695,-0.39152 -8.44704,1.958566 -4.14494,4.144944 -2.45203,11.217969 3.1482,13.153269 1.68406,0.58197 3.11476,0.61015 4.8478,0.0955 z m 36.67382,4.74889 c -2.24549,-0.60474 -4.05112,-1.67071 -5.75351,-3.39664 -2.53564,-2.5707 -3.84149,-5.60905 -3.84149,-8.93805 0,-6.518203 4.50331,-11.849372 10.92764,-12.936509 6.90219,-1.168002 13.64327,3.750136 14.76819,10.774543 1.03108,6.438436 -3.14811,12.861896 -9.43321,14.498956 -1.90985,0.49745 -4.81569,0.49645 -6.66762,-0.002 z m 6.74834,-4.88055 c 1.81805,-0.7851 3.81948,-2.95188 4.46034,-4.82883 0.75025,-2.19733 0.62046,-4.323953 -0.38903,-6.374523 -2.50038,-5.078992 -8.84798,-6.378967 -12.98512,-2.659324 -4.83176,4.34417 -3.27938,11.988917 2.88922,14.228077 1.59437,0.57875 4.2049,0.42041 6.02459,-0.3654 z"
       id="path1" /></g></svg>
