<?xml version="1.0" encoding="UTF-8" standalone="no"?>
<!-- Created with Inkscape (http://www.inkscape.org/) -->

<svg
   width="680"
   height="680"
   viewBox="0 0 17 17"
   version="1.1"
   id="svg2433"
   sodipodi:docname="logo-dark.svg"
   inkscape:version="1.2.2 (b0a8486, 2022-12-01)"
   xmlns:inkscape="http://www.inkscape.org/namespaces/inkscape"
   xmlns:sodipodi="http://sodipodi.sourceforge.net/DTD/sodipodi-0.dtd"
   xmlns="http://www.w3.org/2000/svg"
   xmlns:svg="http://www.w3.org/2000/svg">
  <defs
     id="defs2437" />
  <sodipodi:namedview
     id="namedview2435"
     pagecolor="#ffffff"
     bordercolor="#666666"
     borderopacity="1.0"
     inkscape:showpageshadow="2"
     inkscape:pageopacity="0.0"
     inkscape:pagecheckerboard="0"
     inkscape:deskcolor="#d1d1d1"
     showgrid="false"
     inkscape:zoom="0.5967404"
     inkscape:cx="67.868708"
     inkscape:cy="382.07569"
     inkscape:window-width="1792"
     inkscape:window-height="1004"
     inkscape:window-x="-3"
     inkscape:window-y="25"
     inkscape:window-maximized="0"
     inkscape:current-layer="svg2433"
     showguides="true">
    <sodipodi:guide
       position="4,17.5"
       orientation="0,-1"
       id="guide344"
       inkscape:locked="false" />
  </sodipodi:namedview>
  <g
     id="layer1"
     transform="translate(-1.5,-1)"
     style="fill:#333333">
    <path
       id="path2430"
       style="fill:#333333;fill-opacity:1;stroke:none;stroke-width:0px"
       d="M 4,1 V 3 H 2 V 4 H 4 V 5 H 2 V 6 H 4 V 7 H 2 V 8 H 4 V 9 H 2 v 1 h 2 v 1 H 2 v 1 h 2 v 1 H 2 v 1 h 2 v 1 H 2 v 1 h 2 v 1 1 h 1 10 1 V 17 16.5 16 h 2 v -1 h -2 v -1 h 2 v -1 h -2 v -1 h 2 v -1 h -2 v -1 h 2 V 9 H 16 V 8 h 2 V 7 H 16 V 6 h 2 V 5 H 16 V 4 h 2 V 3 H 16 V 1 h -2.621387 -1 A 2.3786125,2.3786125 0 0 1 10,3.3786133 2.3786125,2.3786125 0 0 1 7.6213867,1 h -1 z M 5,2 H 6.7729004 A 3.3786073,3.3786073 0 0 0 10,4.3786133 3.3786073,3.3786073 0 0 0 13.2271,2 H 15 V 17 H 5 Z" />
  </g>
  <text
     xml:space="preserve"
     style="font-style:normal;font-variant:normal;font-weight:bold;font-stretch:normal;font-size:13.1116px;line-height:1.25;font-family:Arvo;-inkscape-font-specification:'Arvo Bold';fill:#333333;fill-opacity:1;stroke:none;stroke-width:0.327789"
     x="6.0383739"
     y="14.705265"
     id="text1453"><tspan
       sodipodi:role="line"
       id="tspan1451"
       style="font-style:normal;font-variant:normal;font-weight:bold;font-stretch:normal;font-family:Arvo;-inkscape-font-specification:'Arvo Bold';fill:#333333;fill-opacity:1;stroke-width:0.327789"
       x="6.0383739"
       y="14.705265">i</tspan></text>
</svg>
